IKResults
version=1
nRows=12
nColumns=44
inDegrees=yes

Units are S.I. units (second, meters, Newtons, ...)
Angles are in degrees.

endheader
time	ground_spine_rot_x	ground_spine_rot_y	ground_spine_rot_z	ground_spine_tx	ground_spine_ty	ground_spine_tz	clav_prot	clav_elev	scapula_abduction	scapula_elevation	scapula_upward_rot	scapula_winging	plane_elv	shoulder_elv	axial_rot	elbow_flexion	pro_sup	clav_prot_l	clav_elev_l	pitch2	roll2	yaw2	aux7jnt_r3	aux7jnt_r1	aux7jnt_r2	aux6jnt_r3	aux6jnt_r1	aux6jnt_r2	aux5jnt_r3	aux5jnt_r1	aux5jnt_r2	aux4jnt_r3	aux4jnt_r1	aux4jnt_r2	aux3jnt_r3	aux3jnt_r1	aux3jnt_r2	pitch1	roll1	yaw1	aux1jnt_r3	aux1jnt_r1	aux1jnt_r2
     72.11000000	      1.09282845	     -4.03137767	      0.11991460	     -0.84477862	      1.09836055	      0.92270183	    -20.73991208	     -2.71999109	     11.34364366	    -17.01406085	     11.99758357	     16.08535096	    -67.18526821	     38.19422626	     52.83307011	      0.00000000	     34.32000000	     30.42326055	     -1.16071730	     -0.04984707	     -0.01806991	      0.01069096	     -0.53407744	     -0.14184002	      0.11515882	     -0.62832485	     -0.16254685	      0.13414769	     -0.62832485	     -0.22363102	      0.13414769	     -0.47124364	     -0.22363102	      0.13414769	     -0.31416243	     -0.20292478	      0.05757941	     -0.24875994	      0.01633651	     -0.00042183	     -7.92460539	      0.46800647	     -0.00268278
     72.12000000	      1.08792442	     -4.03178535	      0.14443468	     -0.84465491	      1.09841042	      0.92271314	    -20.77720657	     -2.75498986	     11.29838670	    -17.05095951	     11.99729560	     16.12675528	    -66.86765736	     38.49448473	     52.65210427	      0.00000000	     34.32000000	     30.42326055	     -1.16071730	     -0.05221244	     -0.01548955	      0.00998346	     -0.55942085	     -0.12158542	      0.10753787	     -0.65814056	     -0.13933534	      0.12527011	     -0.65814056	     -0.19169675	      0.12527011	     -0.49360542	     -0.19169675	      0.12527011	     -0.32907028	     -0.17394734	      0.05376894	     -0.24824045	      0.01324249	     -0.00014018	     -7.90805641	      0.37936939	     -0.00089154
     72.13000000	      1.08110917	     -3.95527292	      0.11777579	     -0.84478253	      1.09836344	      0.92270413	    -20.97192300	     -2.82050705	     11.02159230	    -17.13516381	     11.99835702	     16.30972644	    -68.28307503	     38.59602396	     51.65775860	      0.00000000	     34.32000000	     30.42326055	     -1.16071730	     -0.04228968	     -0.01842840	      0.00879588	     -0.45310516	     -0.14465400	      0.09474573	     -0.53306359	     -0.16577163	      0.11036863	     -0.53306359	     -0.22806765	      0.11036863	     -0.39979769	     -0.22806765	      0.11036863	     -0.26653179	     -0.20695062	      0.04737286	     -0.26267775	      0.01855752	      0.00076450	     -8.36797734	      0.53163389	      0.00486209
     72.14000000	      1.06982100	     -4.02335572	      0.11629190	     -0.84486589	      1.09838317	      0.92285823	    -20.75897294	     -2.86644067	     11.36646028	    -17.15272823	     11.99830136	     16.13964933	    -68.18159362	     38.88977966	     45.34162863	      0.00000000	     34.32000000	     30.42326055	     -1.16071730	     -0.04311283	     -0.02014669	      0.00946643	     -0.46192462	     -0.15814172	      0.10196868	     -0.54343940	     -0.18122839	      0.11878259	     -0.54343940	     -0.24933296	      0.11878259	     -0.40757955	     -0.24933296	      0.11878259	     -0.27171970	     -0.22624696	      0.05098434	     -0.26252106	      0.02142043	      0.00222728	     -8.36298572	      0.61365012	      0.01416518
     72.15000000	      1.07137235	     -4.04086150	      0.10905233	     -0.84493883	      1.09835044	      0.92286893	    -20.78516369	     -2.83836750	     11.31617437	    -17.12970340	     11.99822560	     16.15482893	    -68.40888519	     38.72606950	     54.60652270	      0.00000000	     34.32000000	     30.42326055	     -1.16071730	     -0.04352173	     -0.01896435	      0.01660820	     -0.46630580	     -0.14886096	      0.17889696	     -0.54859371	     -0.17059275	      0.20839580	     -0.54859371	     -0.23470052	      0.20839580	     -0.41144528	     -0.23470052	      0.20839580	     -0.27429686	     -0.21296934	      0.08944848	     -0.26272476	      0.02070472	     -0.00502685	     -8.36947499	      0.59314644	     -0.03197001
     72.16000000	      1.06786211	     -4.06147270	      0.09532789	     -0.84508529	      1.09834839	      0.92293329	    -20.75950219	     -2.84862555	     11.35923203	    -17.13616119	     11.99807727	     16.13557648	    -68.39995800	     38.71538462	     54.59066230	      0.00000000	     34.32000000	     30.42326055	     -1.16071730	     -0.04409566	     -0.01883012	      0.02015976	     -0.47245498	     -0.14780729	      0.21715297	     -0.55582803	     -0.16938526	      0.25295996	     -0.55582803	     -0.23303926	      0.25295996	     -0.41687102	     -0.23303926	      0.25295996	     -0.27791401	     -0.21146190	      0.10857648	     -0.26278769	      0.02119699	     -0.00851444	     -8.37147958	      0.60724901	     -0.05415052
     72.17000000	      1.06571266	     -4.06325589	      0.10295316	     -0.84507243	      1.09834348	      0.92297006	    -20.77633676	     -2.85763092	     11.33649835	    -17.14654283	     11.99812691	     16.15230690	    -68.41041151	     38.74641258	     54.66201895	      0.00000000	     34.32000000	     30.42326055	     -1.16071730	     -0.04539417	     -0.01853965	      0.01866334	     -0.48636763	     -0.14552723	      0.20103410	     -0.57219580	     -0.16677234	      0.23418321	     -0.57219580	     -0.22944442	      0.23418321	     -0.42914685	     -0.22944442	      0.23418321	     -0.28609790	     -0.20819991	      0.10051705	     -0.26278830	      0.02043359	     -0.00731005	     -8.37149913	      0.58537921	     -0.04649076
     72.18000000	      1.07507040	     -4.06170449	      0.09571129	     -0.84518719	      1.09831059	      0.92286952	    -20.77031129	     -2.83657967	     11.33851538	    -17.12631104	     11.99831171	     16.14162675	    -68.37754390	     38.71440885	     54.54416452	      0.00000000	     34.32000000	     30.42326055	     -1.16071730	     -0.04651922	     -0.01872168	      0.02128412	     -0.49842180	     -0.14695610	      0.22926416	     -0.58637715	     -0.16840981	      0.26706821	     -0.58637715	     -0.23169724	      0.26706821	     -0.43978286	     -0.23169724	      0.26706821	     -0.29318857	     -0.21024415	      0.11463208	     -0.26274563	      0.02107599	     -0.00997244	     -8.37013979	      0.60378256	     -0.06342318
     72.19000000	      1.07000196	     -4.06218183	      0.10003853	     -0.84519636	      1.09831212	      0.92291756	    -20.78090892	     -2.84106907	     11.32357475	    -17.13167215	     11.99809449	     16.15192432	    -68.38859227	     38.71125641	     54.51271898	      0.00000000	     34.32000000	     30.42326055	     -1.16071730	     -0.04770500	     -0.01839037	      0.02197174	     -0.51112663	     -0.14435548	      0.23667092	     -0.60132397	     -0.16542953	      0.27569629	     -0.60132397	     -0.22759698	      0.27569629	     -0.45099298	     -0.22759698	      0.27569629	     -0.30066198	     -0.20652354	      0.11833546	     -0.26277419	      0.02069488	     -0.01076657	     -8.37104946	      0.59286464	     -0.06847370
     72.20000000	      1.09088650	     -4.04560149	      0.09484967	     -0.84529090	      1.09829510	      0.92274449	    -20.82394141	     -2.83389440	     11.25477101	    -17.13011190	     11.99819768	     16.18685894	    -68.38552529	     38.76861426	     51.04810579	      0.00000000	     34.32000000	     30.42326055	     -1.16071730	     -0.04839238	     -0.01982660	      0.01775794	     -0.51849144	     -0.15562923	      0.19128157	     -0.60998844	     -0.17834910	      0.22282255	     -0.60998844	     -0.24537166	      0.22282255	     -0.45749133	     -0.24537166	      0.22282255	     -0.30499422	     -0.22265244	      0.09564078	     -0.26273333	      0.01994807	     -0.00662655	     -8.36974797	      0.57147008	     -0.04214384
     72.21000000	      1.07441666	     -4.03751264	      0.09303721	     -0.84536732	      1.09830094	      0.92282484	    -20.80252352	     -2.85744584	     11.29673011	    -17.14971425	     11.99891539	     16.17444496	    -68.44651466	     38.82463287	     50.41377477	      0.00000000	     34.32000000	     30.42326055	     -1.16071730	     -0.04978957	     -0.01878258	      0.01703177	     -0.53346142	     -0.14743415	      0.18345954	     -0.62760013	     -0.16895765	      0.21371072	     -0.62760013	     -0.23245095	      0.21371072	     -0.47070010	     -0.23245095	      0.21371072	     -0.31380007	     -0.21092807	      0.09172977	     -0.26274452	      0.02018699	     -0.00621071	     -8.37010432	      0.57831470	     -0.03949917
     72.22000000	      1.07389019	     -4.03705215	      0.07645350	     -0.84555000	      1.09826822	      0.92280157	    -20.81830208	     -2.83927767	     11.26487793	    -17.13428636	     11.99765262	     16.18357375	    -68.36176025	     38.71371470	     54.53091339	      0.00000000	     34.32000000	     30.42326055	     -1.16071730	     -0.05063698	     -0.01802669	      0.01930308	     -0.54254079	     -0.14150076	      0.20792513	     -0.63828172	     -0.16215807	      0.24221052	     -0.63828172	     -0.22309613	      0.24221052	     -0.47871129	     -0.22309613	      0.24221052	     -0.31914086	     -0.20243942	      0.10396257	     -0.26272302	      0.01970817	     -0.00856076	     -8.36941946	      0.56459741	     -0.05444511
